<svg xmlns="http://www.w3.org/2000/svg" xmlns:svg="http://www.w3.org/2000/svg" id="svg5" width="32" height="32" version="1.1" viewBox="0 0 8.467 8.467" xml:space="preserve"><g id="layer1"><g id="g5251" style="display:inline" transform="translate(0,-0.26458367)"><path style="fill:#fff;stroke:#7e8384;stroke-width:.264583;stroke-opacity:1;paint-order:fill markers stroke" id="path447" d="m 0.13229166,0.66145849 2e-8,7.67291651 H 8.3343748 V 0.66145849 Z"/><path style="fill:#229fe7;fill-opacity:1;stroke:#229fe7;stroke-width:.264583;stroke-opacity:1;paint-order:fill markers stroke" id="path545" d="M 0.13229166,0.66145835 V 1.7197923 H 8.3343748 V 0.66145835 Z"/><path style="display:inline;fill:#e81123;fill-opacity:1;stroke:#e81123;stroke-width:.264583;stroke-opacity:1;paint-order:fill markers stroke" id="path1827" d="M 7.2760415,0.66145833 V 1.7197919 H 8.3343749 V 0.66145833 Z"/><path id="path5274" style="color:#000;display:inline;fill:#fff;-inkscape-stroke:none;paint-order:fill markers stroke" d="M 7.6072874,0.79271646 7.4083332,0.99218747 7.6067707,1.190625 7.4083332,1.3885457 7.6072874,1.5880167 7.8052082,1.3890625 8.0041624,1.5880167 8.2010496,1.3885457 8.0036457,1.190625 8.2010496,0.99218747 8.0041624,0.79271646 7.8052082,0.99167077 Z"/><path style="fill:#e81123;fill-opacity:1;stroke:#fff;stroke-width:.264583;stroke-dasharray:none;stroke-opacity:1;paint-order:fill markers stroke" id="path2628" d="m 5.5562499,1.1906249 h -0.79375"/><path style="fill:none;fill-opacity:1;stroke:#fff;stroke-width:.264583;stroke-dasharray:none;stroke-opacity:1;paint-order:fill markers stroke" id="path2697" d="m 6.2177081,0.92604141 -1e-7,0.52916659 h 0.5291667 l 2e-7,-0.52916659 z"/></g><g id="g5355" style="display:inline" transform="translate(0,0.52910397)"><path id="circle1713" style="fill:#fff;fill-opacity:1;stroke:#000;stroke-width:.264583;stroke-dasharray:none;stroke-opacity:1;paint-order:fill markers stroke" d="M 4.019021,1.7172936 C 2.658187,1.7482547 1.4829098,2.926165 1.4520922,4.2894681 1.3811287,5.793451 2.769802,7.1533138 4.2704355,7.0058305 5.9255491,6.9608787 7.1538727,5.1339957 6.6289187,3.5743512 6.2944814,2.4593596 5.1818209,1.659223 4.019021,1.7172936 Z"/><path style="fill:#fff;fill-opacity:1;stroke:#000;stroke-width:.264583;stroke-dasharray:none;stroke-opacity:1;paint-order:fill markers stroke" id="path1850" d="M 4.3656249,4.6302082 H 3.8364583 V 4.1010416 h 0.5291666 z"/><g id="g2601"><path style="fill:none;stroke:#000;stroke-width:.264583;stroke-dasharray:none;stroke-opacity:1;paint-order:fill markers stroke" id="path1720" d="m 4.2333332,5.688508 0.6614584,3.36e-5"/><path style="fill:none;stroke:#000;stroke-width:.264583;stroke-dasharray:none;stroke-opacity:1;paint-order:fill markers stroke" id="path1844" d="M 3.9687499,6.2177082 H 3.3072915 V 4.4979165"/><path style="fill:none;stroke:#000;stroke-width:.264583;stroke-dasharray:none;stroke-opacity:1;paint-order:fill markers stroke" id="path1846" d="M 4.2333333,6.2177082 H 4.8947917 V 4.4979165"/><path style="fill:none;stroke:#000;stroke-width:.264583;stroke-dasharray:none;stroke-opacity:1;paint-order:fill markers stroke" id="path1852" d="m 3.1749998,5.688508 0.7937501,3.36e-5"/><path style="fill:none;stroke:#000;stroke-width:.264583;stroke-dasharray:none;stroke-opacity:1;paint-order:fill markers stroke" id="path2590" d="m 4.4979166,4.8947583 0.396875,3.36e-5"/><path style="fill:none;stroke:#000;stroke-width:.264583;stroke-dasharray:none;stroke-opacity:1;paint-order:fill markers stroke" id="path2592" d="m 3.3072917,4.8947583 0.396875,3.36e-5"/></g><g id="g2615" transform="rotate(90,4.1010373,4.3656234)"><path style="fill:none;stroke:#000;stroke-width:.264583;stroke-dasharray:none;stroke-opacity:1;paint-order:fill markers stroke" id="path2603" d="m 4.2333332,5.688508 0.6614584,3.36e-5"/><path style="fill:none;stroke:#000;stroke-width:.264583;stroke-dasharray:none;stroke-opacity:1;paint-order:fill markers stroke" id="path2605" d="M 3.9687499,6.2177024 H 3.3072915 V 4.4979165"/><path style="fill:none;stroke:#000;stroke-width:.264583;stroke-dasharray:none;stroke-opacity:1;paint-order:fill markers stroke" id="path2607" d="M 4.2333333,6.2177024 H 4.8947917 V 4.4979165"/><path style="fill:none;stroke:#000;stroke-width:.264583;stroke-dasharray:none;stroke-opacity:1;paint-order:fill markers stroke" id="path2609" d="m 3.1749998,5.688508 0.7937501,3.36e-5"/><path style="fill:none;stroke:#000;stroke-width:.264583;stroke-dasharray:none;stroke-opacity:1;paint-order:fill markers stroke" id="path2611" d="m 4.4979166,4.8947583 0.396875,3.36e-5"/><path style="fill:none;stroke:#000;stroke-width:.264583;stroke-dasharray:none;stroke-opacity:1;paint-order:fill markers stroke" id="path2613" d="m 3.3072917,4.8947583 0.396875,3.36e-5"/></g><g id="g2629" transform="matrix(0,1,1,0,-0.26458868,0.2645861)"><path style="fill:none;stroke:#000;stroke-width:.264583;stroke-dasharray:none;stroke-opacity:1;paint-order:fill markers stroke" id="path2617" d="m 4.2333332,5.688508 0.6614584,3.36e-5"/><path style="fill:none;stroke:#000;stroke-width:.264583;stroke-dasharray:none;stroke-opacity:1;paint-order:fill markers stroke" id="path2619" d="M 3.9687499,6.2177136 H 3.3072915 V 4.4979165"/><path style="fill:none;stroke:#000;stroke-width:.264583;stroke-dasharray:none;stroke-opacity:1;paint-order:fill markers stroke" id="path2621" d="M 4.2333333,6.2177136 H 4.8947917 V 4.4979165"/><path style="fill:none;stroke:#000;stroke-width:.264583;stroke-dasharray:none;stroke-opacity:1;paint-order:fill markers stroke" id="path2623" d="m 3.1749998,5.688508 0.7937501,3.36e-5"/><path style="fill:none;stroke:#000;stroke-width:.264583;stroke-dasharray:none;stroke-opacity:1;paint-order:fill markers stroke" id="path2625" d="m 4.4979166,4.8947583 0.396875,3.36e-5"/><path style="fill:none;stroke:#000;stroke-width:.264583;stroke-dasharray:none;stroke-opacity:1;paint-order:fill markers stroke" id="path2627" d="m 3.3072917,4.8947583 0.396875,3.36e-5"/></g><g id="g2643" transform="matrix(1,0,0,-1,0,8.7312616)"><path style="fill:none;stroke:#000;stroke-width:.264583;stroke-dasharray:none;stroke-opacity:1;paint-order:fill markers stroke" id="path2631" d="m 4.2333332,5.688508 0.6614584,3.36e-5"/><path style="fill:none;stroke:#000;stroke-width:.264583;stroke-dasharray:none;stroke-opacity:1;paint-order:fill markers stroke" id="path2633" d="M 3.9687499,6.21772 H 3.3072915 V 4.4979165"/><path style="fill:none;stroke:#000;stroke-width:.264583;stroke-dasharray:none;stroke-opacity:1;paint-order:fill markers stroke" id="path2635" d="M 4.2333333,6.21772 H 4.8947917 V 4.4979165"/><path style="fill:none;stroke:#000;stroke-width:.264583;stroke-dasharray:none;stroke-opacity:1;paint-order:fill markers stroke" id="path2637" d="m 3.1749998,5.688508 0.7937501,3.36e-5"/><path style="fill:none;stroke:#000;stroke-width:.264583;stroke-dasharray:none;stroke-opacity:1;paint-order:fill markers stroke" id="path2639" d="m 4.4979166,4.8947583 0.396875,3.36e-5"/><path style="fill:none;stroke:#000;stroke-width:.264583;stroke-dasharray:none;stroke-opacity:1;paint-order:fill markers stroke" id="path2641" d="m 3.3072917,4.8947583 0.396875,3.36e-5"/></g><path id="path2751" style="color:#000;fill:#000;-inkscape-stroke:none;paint-order:fill markers stroke" d="M 4.2343668,2.1171834 V 2.383317 c 0.9617046,0.03865 1.7531756,0.915662 1.8407145,1.8489827 H 6.3412149 C 6.257417,3.1572682 5.3528238,2.1533122 4.2343668,2.1171834 Z m -0.2656169,0.00982 c -0.016906,0.00177 -0.03367,0.00346 -0.050643,0.00568 H 3.91604 l -0.084233,0.0062 C 2.7475487,2.2409 1.9571664,3.2134914 1.8634521,4.2322997 H 2.1321696 C 2.2279611,3.3427084 2.9215529,2.4911778 3.8535115,2.4024373 l 0.093534,-0.0062 h 0.00413 c 0.00589,-7.78e-4 0.011692,-0.00135 0.01757,-0.00207 z M 1.8546671,4.4979166 c 0.012881,0.4323608 0.1570796,0.8601132 0.4635376,1.2205973 0.3860206,0.5679516 1.0107986,0.8599888 1.6505452,0.8919352 V 6.3427652 C 3.407719,6.3117418 2.8622039,6.0571224 2.5311116,5.5645181 l -0.00568,-0.00568 -0.00413,-0.0062 C 2.2568699,5.2436707 2.133058,4.873805 2.1218343,4.4979166 Z m 4.2255818,0 C 6.0658154,4.7658652 5.9902735,5.0324539 5.8399535,5.2792642 l -0.00413,0.00568 -0.00362,0.00827 C 5.5413299,5.9374481 4.8987519,6.2942646 4.2343668,6.3406981 V 6.608382 C 4.9929998,6.5613543 5.7290843,6.1519932 6.0683633,5.4063882 6.2419452,5.117921 6.3290301,4.8079771 6.3448322,4.4979166 Z"/></g></g></svg>