<svg xmlns="http://www.w3.org/2000/svg" xmlns:svg="http://www.w3.org/2000/svg" id="svg5" width="32" height="32" version="1.1" viewBox="0 0 8.467 8.467" xml:space="preserve"><defs id="defs2"><style id="style2">.light-defaultgrey{fill:#212121;opacity:1}</style></defs><g id="layer1"><path style="fill:#fff;stroke:#7e8384;stroke-width:.264583;stroke-opacity:1;paint-order:fill markers stroke" id="path447" d="m 0.13229166,0.39687482 2e-8,7.67291648 H 8.3343748 V 0.39687482 Z"/><path style="fill:#229fe7;fill-opacity:1;stroke:#229fe7;stroke-width:.264583;stroke-opacity:1;paint-order:fill markers stroke" id="path545" d="M 0.13229166,0.39687468 V 1.4552086 H 8.3343748 V 0.39687468 Z"/><path style="display:inline;fill:#e81123;fill-opacity:1;stroke:#e81123;stroke-width:.264583;stroke-opacity:1;paint-order:fill markers stroke" id="path1827" d="M 7.2760415,0.39687466 V 1.4552082 H 8.3343749 V 0.39687466 Z"/><path id="path5274" style="color:#000;display:inline;fill:#fff;-inkscape-stroke:none;paint-order:fill markers stroke" d="M 7.6072874,0.52813279 7.4083332,0.7276038 7.6067707,0.92604133 7.4083332,1.123962 7.6072874,1.323433 7.8052082,1.1244788 8.0041624,1.323433 8.2010496,1.123962 8.0036457,0.92604133 8.2010496,0.7276038 8.0041624,0.52813279 7.8052082,0.7270871 Z"/><path style="fill:#e81123;fill-opacity:1;stroke:#fff;stroke-width:.264583;stroke-dasharray:none;stroke-opacity:1;paint-order:fill markers stroke" id="path2628" d="m 5.5562499,0.92604123 h -0.79375"/><path style="fill:none;fill-opacity:1;stroke:#fff;stroke-width:.264583;stroke-dasharray:none;stroke-opacity:1;paint-order:fill markers stroke" id="path2697" d="m 6.2177081,0.66145774 -1e-7,0.52916656 h 0.5291667 l 2e-7,-0.52916656 z"/><g id="level-1" transform="matrix(0.26458333,0,0,0.26458333,-2.38125,8.4667923)"><rect style="opacity:1;fill:#ffe59d;fill-opacity:1;stroke:none;stroke-width:.782216;stroke-linecap:square;stroke-dasharray:none;paint-order:fill markers stroke" id="rect8773" width="6" height="4" x="12.5" y="-7.5"/><path id="path21" d="M 15,-9.0004753 H 12.5 L 12,-8.0004751 v 4.5004754 l 0.5,0.5 h 5.999825 l 0.5,-0.5 V -8.0004751 H 16 Z m -2,5.0004756 v -3.0004754 h 4.999825 v 3.0004754 z" class="light-defaultgrey" style="display:inline;fill:#996f00;fill-opacity:1"/></g><path id="rect533" style="opacity:1;fill:#0078d7;stroke-width:.215833;stroke-linecap:square;paint-order:fill markers stroke;fill-opacity:1" d="M 3.1749999,2.38125 H 7.6729165 V 2.9104167 H 3.1749999 Z"/><path id="path536" style="opacity:1;fill:#0078d7;stroke-width:.215833;stroke-linecap:square;paint-order:fill markers stroke;fill-opacity:1" d="M 3.1749999,4.4979168 H 7.6729165 V 5.0270835 H 3.1749999 Z"/><path id="path1092" style="opacity:1;fill:#0078d7;stroke-width:.215833;stroke-linecap:square;paint-order:fill markers stroke;fill-opacity:1" d="M 3.1749999,6.6145836 H 7.6729165 V 7.1437503 H 3.1749999 Z"/><g id="g11358" transform="matrix(0.26458333,0,0,0.26458333,-2.38125,6.3501255)"><rect style="opacity:1;fill:#ffe59d;fill-opacity:1;stroke:none;stroke-width:.782216;stroke-linecap:square;stroke-dasharray:none;paint-order:fill markers stroke" id="rect11352" width="6" height="4" x="12.5" y="-7.5"/><path id="path11354" d="M 15,-9.0004753 H 12.5 L 12,-8.0004751 v 4.5004754 l 0.5,0.5 h 5.999825 l 0.5,-0.5 V -8.0004751 H 16 Z m -2,5.0004756 v -3.0004754 h 4.999825 v 3.0004754 z" class="light-defaultgrey" style="fill:#996f00;fill-opacity:1"/></g><g id="g11366" transform="matrix(0.26458333,0,0,0.26458333,-2.38125,4.2334587)" style="display:inline"><rect style="opacity:1;fill:#ffe59d;fill-opacity:1;stroke:none;stroke-width:.782216;stroke-linecap:square;stroke-dasharray:none;paint-order:fill markers stroke" id="rect11360" width="6" height="4" x="12.5" y="-7.5"/><path id="path11362" d="M 15,-9.0004753 H 12.5 L 12,-8.0004751 v 4.5004754 l 0.5,0.5 h 5.999825 l 0.5,-0.5 V -8.0004751 H 16 Z m -2,5.0004756 v -3.0004754 h 4.999825 v 3.0004754 z" class="light-defaultgrey" style="fill:#996f00;fill-opacity:1"/></g></g></svg>