<svg xmlns="http://www.w3.org/2000/svg" xmlns:svg="http://www.w3.org/2000/svg" id="svg5" width="32" height="32" version="1.1" viewBox="0 0 8.467 8.467" xml:space="preserve"><defs id="defs2"><style id="style2">.light-defaultgrey{fill:#212121;opacity:1}</style></defs><g id="layer1"><g id="g5251" style="display:inline" transform="translate(0,-0.26458367)"><path style="fill:#fff;stroke:#7e8384;stroke-width:.264583;stroke-opacity:1;paint-order:fill markers stroke" id="path447" d="m 0.13229166,0.66145849 2e-8,7.67291651 H 8.3343748 V 0.66145849 Z"/><path style="fill:#229fe7;fill-opacity:1;stroke:#229fe7;stroke-width:.264583;stroke-opacity:1;paint-order:fill markers stroke" id="path545" d="M 0.13229166,0.66145835 V 1.7197923 H 8.3343748 V 0.66145835 Z"/><path style="display:inline;fill:#e81123;fill-opacity:1;stroke:#e81123;stroke-width:.264583;stroke-opacity:1;paint-order:fill markers stroke" id="path1827" d="M 7.2760415,0.66145833 V 1.7197919 H 8.3343749 V 0.66145833 Z"/><path id="path5274" style="color:#000;display:inline;fill:#fff;-inkscape-stroke:none;paint-order:fill markers stroke" d="M 7.6072874,0.79271646 7.4083332,0.99218747 7.6067707,1.190625 7.4083332,1.3885457 7.6072874,1.5880167 7.8052082,1.3890625 8.0041624,1.5880167 8.2010496,1.3885457 8.0036457,1.190625 8.2010496,0.99218747 8.0041624,0.79271646 7.8052082,0.99167077 Z"/><path style="fill:#e81123;fill-opacity:1;stroke:#fff;stroke-width:.264583;stroke-dasharray:none;stroke-opacity:1;paint-order:fill markers stroke" id="path2628" d="m 5.5562499,1.1906249 h -0.79375"/><path style="fill:none;fill-opacity:1;stroke:#fff;stroke-width:.264583;stroke-dasharray:none;stroke-opacity:1;paint-order:fill markers stroke" id="path2697" d="m 6.2177081,0.92604141 -1e-7,0.52916659 h 0.5291667 l 2e-7,-0.52916659 z"/></g><g id="level-1" transform="matrix(0.26458333,0,0,0.26458333,1.5875,5.0270832)"><path id="path17" d="m 7.4999997,-4.9999998 h -7.99999981 l -0.49999999,0.5 v 7 l 0.49999999,0.5 H 7.4999997 l 0.5,-0.5 v -7 z m -7.49999981102362,7 V -2.9999999 H 6.9999997 v 5.0000001 z" class="light-defaultgrey" style="fill:#595959;fill-opacity:1"/><path id="path1087" d="m 3.9999999,-7.9999997 v 1.9999999 h -1 v -2.4999999 l 0.5,-0.5000002 H 11 v 1.0000002 z" class="light-defaultgrey" style="opacity:1;fill:#595959;fill-opacity:1"/><rect style="opacity:.655422;fill:#ffd869;fill-opacity:1;stroke:none;stroke-width:1.10622;stroke-linecap:square;stroke-dasharray:none;paint-order:fill markers stroke" id="rect8773" width="8" height="6" x="12.5" y="-9.5"/><path id="path21" d="M 15,-11 H 12.5 L 12,-9.9999998 v 6.5000001 l 0.5,0.5 h 8 l 0.5,-0.5 v -6.5000001 h -5 z m -2,7.0000003 v -5.0000001 h 7 v 5.0000001 z" class="light-defaultgrey" style="fill:#996f00;fill-opacity:1"/><path id="path1089" d="m 12,3.0000002 v 5.5000001 l 0.5,0.5 h 8 l 0.5,-0.5 V 3.0000002 Z m 1,5.0000001 V 3.0000002 h 7 v 5.0000001 z" class="light-defaultgrey" style="fill:#595959;fill-opacity:1"/><path id="path1091" d="m 21,1.0000001 h -9 v 2.0000001 h 9 z" class="light-defaultgrey" style="fill:#229fe7;fill-opacity:1"/><path id="path4072" d="m 21,1.0000001 h -2 v 2.0000001 h 2 z" class="light-defaultgrey" style="fill:#e81123;fill-opacity:1;stroke-width:.577352"/><path id="path8719" d="M 3.9999999,6 V 4.0000002 h -1 V 6.5 l 0.5,0.5000002 H 11 V 6 Z" class="light-defaultgrey" style="opacity:1;fill:#595959;fill-opacity:1"/></g></g></svg>