<svg xmlns="http://www.w3.org/2000/svg" xmlns:svg="http://www.w3.org/2000/svg" id="svg10" version="1.1" viewBox="0 0 16 16" xml:space="preserve"><style id="style2">.icon-vs-bg{fill:#424242}</style><style id="style11428" type="text/css">.icon-vs-bg{fill:#424242}.icon-vs-action-green{fill:#388a34}</style><g id="iconBg-4" style="display:inline" transform="translate(-0.0042526,-0.03443757)"><path id="path11436" d="M 14.001418,3.0172188 9.0028351,9.714 v 5.320438 h -2 V 9.714 L 2.0042526,3.0516564 Z" class="icon-vs-bg" style="display:inline"/></g><g id="g1826" transform="rotate(45,8.3071812,18.516335)"><path id="path997" style="fill:#fff;fill-opacity:1" d="m -5.7658332,15.290993 2.4743823,1.52e-4 -1.222e-4,-2 1.9999993,-1e-6 3e-7,-3.99121 c -0.6608109,-0.01171 -1.3684785,0.02343 -1.9999988,-0.01758 l 6e-7,-1.9999992 -2.4913808,-1.518e-4 z" class="icon-vs-action-green"/><path id="path11439" d="m -2.2562021,12.286674 h -1.9999998 l -2e-7,2 h -1.9809998 l -3e-7,-2 h -2.0189997 v -1.982 h 2.0189999 l 1e-7,-2.0179997 1.981,-10e-8 -2e-7,2.0179998 h 2.0000003 z" class="icon-vs-action-green" style="fill:#a00;fill-opacity:1"/></g><style id="style11428-7" type="text/css">.icon-vs-bg{fill:#424242}.icon-vs-action-green{fill:#388a34}</style></svg>