<svg xmlns="http://www.w3.org/2000/svg" xmlns:svg="http://www.w3.org/2000/svg" id="svg9500" version="1.1" viewBox="0 0 16 16" xml:space="preserve"><defs id="defs9504"><style id="style3770">.light-defaultgrey-10{fill:#212121;opacity:.1}.light-defaultgrey{fill:#212121;opacity:1}</style><style id="style2">.light-defaultgrey-10{fill:#212121;opacity:.1}.light-defaultgrey{fill:#212121;opacity:1}</style></defs><style id="style9490">.st0{fill:#f6f6f6}.st2{fill:#00539c}</style><g id="g7214" transform="translate(-1)"><path id="path11" d="m 13.5,4.5 v 10 h -11 v -13 h 8 z" class="light-defaultgrey-10" style="display:inline;opacity:1;fill:#fff;fill-opacity:1"/><path id="path13" d="M 11,1 H 2 V 15 H 14 V 4 Z M 3,14 V 2 h 7 v 3 h 3 v 9 z" class="light-defaultgrey" style="fill:#595959;fill-opacity:1"/></g><g id="g9645" transform="rotate(-90,22.631511,12.572474)"><path id="outline" d="m 21.654324,1.0690715 -2.137,2.137 V 4.034072 l 1.586,1.586 h 0.828 l 2.137,-2.1370005 z" class="st0" style="fill:#fff;fill-opacity:1"/><circle style="fill:#fff;fill-opacity:1;stroke:#fff;stroke-width:2.68263;stroke-linecap:square;stroke-opacity:1" id="path10842" cx=".441" cy="-24.704" r="2.159" transform="rotate(90)"/><path id="color_x5F_importance" d="m 24.692354,-2.1154217 a 2.486,2.486 0 0 0 -2.5,2.48399996 c 0,0.432 0.12,0.83200004 0.313,1.18800004 l -2.313,2.312 1,1.0000003 2.313,-2.3130003 c 0.354,0.194 0.754,0.313 1.187,0.313 A 2.5,2.5 0 0 0 27.192353,0.36857826 2.486,2.486 0 0 0 24.692354,-2.1154217 Z m 0,3.984 a 1.5005001,1.5005001 0 1 1 10e-4,-3.001 1.5005001,1.5005001 0 0 1 -10e-4,3.001 z" class="st2" style="display:inline;fill:#a00;fill-opacity:1"/></g></svg>