<svg xmlns="http://www.w3.org/2000/svg" xmlns:svg="http://www.w3.org/2000/svg" id="svg5" width="16" height="16" version="1.1" viewBox="0 0 4.233 4.233" xml:space="preserve"><g id="layer1"><g id="text236" aria-label="宇" style="font-weight:700;font-size:2.64583px;font-family:Arial;-inkscape-font-specification:'Arial Bold';fill:#41a32b;stroke:#41a32b;stroke-width:.079375;paint-order:fill markers stroke"><path d="m 2.8906733,3.9687499 c 0.027561,0 0.019744,-0.021916 0.019743,-0.049477 l -1.21e-5,-0.744273 H 1.852071 l 2.46e-5,-0.2645833 H 2.910429 L 2.9104167,2.6458333 H 2.38125 V 2.38125 H 3.7041666 V 2.6458333 H 3.1750122 v 0.2645833 h 1.0583333 l -2.46e-5,0.2645833 H 3.1749876 l 2.46e-5,0.79375 c 4.3e-6,0.1386398 -0.00379,0.2645833 -0.2645956,0.2645833 H 2.38125 V 3.9687499 Z M 2.9104165,1.5875 H 3.1749999 V 1.8520833 H 4.2333332 V 2.38125 H 3.9687499 V 2.1166666 H 2.1166666 V 2.38125 H 1.8520833 V 1.8520833 h 1.0583335 z" style="font-weight:900;-inkscape-font-specification:'Arial Heavy';stroke:none;stroke-width:.0264583;stroke-dasharray:none" id="path8012"/></g><text xml:space="preserve" style="font-weight:700;font-size:3.4728px;font-family:Arial;-inkscape-font-specification:'Arial Bold';fill:#d32e02;fill-opacity:1;stroke:none;stroke-width:.104184;stroke-dasharray:none;paint-order:fill markers stroke" id="text1004" x="-.156" y="3.564" transform="scale(1.0425251,0.95920956)"><tspan id="tspan1002" style="font-style:normal;font-variant:normal;font-weight:700;font-stretch:normal;font-family:'Times New Roman';-inkscape-font-specification:'Times New Roman, Bold';fill:#d32e02;fill-opacity:1;stroke-width:.104184" x="-.156" y="3.564">a</tspan></text><text xml:space="preserve" style="font-weight:700;font-size:2.21475px;font-family:Arial;-inkscape-font-specification:'Arial Bold';fill:#3f6cc3;fill-opacity:1;stroke:#3f6cc3;stroke-width:.0664204;stroke-dasharray:none;stroke-opacity:1;paint-order:fill markers stroke" id="text1784" x=".884" y="1.498" transform="scale(0.9640566,1.0372835)"><tspan id="tspan1782" style="font-style:normal;font-variant:normal;font-weight:700;font-stretch:normal;font-family:'Times New Roman';-inkscape-font-specification:'Times New Roman, Bold';fill:#3f6cc3;fill-opacity:1;stroke:#3f6cc3;stroke-width:.0664204;stroke-dasharray:none;stroke-opacity:1" x=".884" y="1.498">Я</tspan></text></g></svg>