<svg xmlns="http://www.w3.org/2000/svg" xmlns:svg="http://www.w3.org/2000/svg" id="svg22" version="1.1" viewBox="0 0 16 16" xml:space="preserve"><defs id="defs4"><style id="style2">.light-yellow-10{fill:#996f00;opacity:.1}.light-yellow-25{fill:#996f00;opacity:.25}.light-yellow{fill:#996f00;opacity:1}</style><style id="style2023">.light-yellow-10{fill:#996f00;opacity:.1}.light-yellow{fill:#996f00;opacity:1}</style><style id="style7109">.light-yellow-10{fill:#996f00;opacity:.1}.light-yellow{fill:#996f00;opacity:1}</style></defs><title id="title6">IconLightOpenFolder</title><g id="g1735"><path id="path2032" d="m 13.5,3.5 v 11 H 1 v -12 h 4.5 l 1,1 z" class="light-yellow-10" style="opacity:1;fill:#f5f1e6;fill-opacity:1"/><path id="path2034" d="M 7.0125,3 5.49375,2 H 0 V 15 H 14 V 3 Z M 6.9875,4 H 13 V 14 H 1 V 4.5 3 h 4.50625" class="light-yellow" style="display:inline"/></g><path id="path13" d="m 15,7.5 -2,7 H 0.5 l 2,-7 z" class="light-yellow-25" style="display:inline;opacity:1;fill:#e6dbc0;fill-opacity:1"/><path id="path17" d="m 2,7 -2,7 v 1 h 14 l 2,-8 z m 11.092,7 H 1.0845 L 2.769,8 h 11.622 z" class="light-yellow"/><path style="opacity:1;fill:none;fill-opacity:1;stroke:#fff;stroke-width:1;stroke-dasharray:none;stroke-opacity:1" id="path3017" d="m 9,3.5 h 4.5 V 6"/><metadata id="metadata1171"/><path style="opacity:1;fill:none;fill-opacity:1;stroke:#005dba;stroke-width:1.5;stroke-dasharray:none;stroke-opacity:1" id="path3098" d="m 9.75,5.9832738 v -0.879331 c 0,0 0.152927,-2.3657114 2.293907,-2.4039428 h 1.949821"/><path style="opacity:1;fill:none;fill-opacity:1;stroke:#005dba;stroke-width:1.5;stroke-dasharray:none;stroke-opacity:1" id="path3100" d="M 12.810815,4.781886 14.919463,2.6732379 12.810815,0.56458937"/></svg>