<svg xmlns="http://www.w3.org/2000/svg" xmlns:svg="http://www.w3.org/2000/svg" id="svg6" enable-background="new 0 0 16 16" version="1.1" viewBox="0 0 16 16"><style id="style2" type="text/css">.icon_x002D_asx_x002D_blue{fill:#0081e4}</style><path id="path4" style="fill:#996f00;fill-opacity:1" d="M 0,2 V 16 H 8 V 15 H 1 V 3 H 3 V 2 Z m 11,0 v 1 h 2 v 3 h 1 V 2 Z" class="icon_x002D_asx_x002D_blue"/><path id="path2032" d="M 13,3 V 15 H 0.99980095 L 1.000199,3 H 3.0056019 L 4,4 h 6 V 3 Z" class="light-yellow-10" style="fill:#e6dbc0;fill-opacity:1"/><rect style="fill:#fff;fill-opacity:1;stroke:#0081e4;stroke-width:.999864;stroke-opacity:1" id="rect998" width="7" height="9" x="8.5" y="6.5"/><path id="path1521" d="M 7,0 C 5.8970011,0 5,0.897001 5,2 H 3 c 0,0 0,1.030109 0,3 h 8 V 2 H 9 C 9,0.897001 8.1029989,0 7,0 Z m 0,1 c 0.5509994,0 1,0.449001 1,1 v 1 h 2 V 4 H 4 V 3 H 6 V 2 C 6,1.449001 6.4490006,1 7,1 Z" class="icon_x002D_asx_x002D_blue" style="fill:#595959;fill-opacity:1"/></svg>