<svg xmlns="http://www.w3.org/2000/svg" xmlns:svg="http://www.w3.org/2000/svg" id="svg3796" version="1.1" viewBox="0 0 16 16"><defs id="defs3772"><style id="style3770">.light-defaultgrey-10{fill:#212121;opacity:.1}.light-defaultgrey{fill:#212121;opacity:1}.light-teal{fill:#006758;opacity:1}</style></defs><title id="title3774">IconLightPrint</title><rect style="opacity:1;fill:#fff;fill-opacity:1;stroke:#595959;stroke-width:1;stroke-dasharray:none;stroke-opacity:1" id="rect8712" width="9" height="6" x="3.5" y=".5"/><path id="path3789" d="m 15.5,7.5 v 5 H 12 4 0.5 v -5 c 0,-0.5522847 0.44771525,-1 1,-1 h 13 c 0.552285,0 1,0.4477153 1,1 z" class="light-defaultgrey-10"/><path id="path3791" d="M 16,7.5 V 13 h -4 v -1 h 3 V 7.5 C 15,7.2238576 14.776142,7 14.5,7 H 1.5 C 1.2238576,7 1,7.2238576 1,7.5 V 12 h 3 v 1 H 0 V 7.5 C 0,6.6715729 0.67157288,6 1.5,6 h 13 C 15.328427,6 16,6.6715729 16,7.5 Z" class="light-defaultgrey" style="fill:#00539c;fill-opacity:1"/><path id="path3793" d="M 4,8 V 9 H 3 V 8 Z" class="light-teal" style="fill:#a00;fill-opacity:1"/><rect style="fill:#fff;fill-opacity:1;stroke:#595959;stroke-width:1;stroke-dasharray:none;stroke-opacity:1" id="rect12465" width="9" height="5" x="3.5" y="10.5"/><metadata id="metadata13195"/></svg>