<svg xmlns="http://www.w3.org/2000/svg" xmlns:svg="http://www.w3.org/2000/svg" id="svg970" version="1.1" viewBox="0 0 16 16" xml:space="preserve"><defs id="defs952"><style id="style950">.light-defaultgrey-10{fill:#212121;opacity:.1}.light-defaultgrey{fill:#212121;opacity:1}</style><style id="style2">.light-defaultgrey-10{fill:#212121;opacity:.1}.light-defaultgrey{fill:#212121;opacity:1}</style></defs><title id="title954">IconLightFrameworkDesignStudio</title><path id="path959" d="M 6.286,14.5 H 0.5 v -12 h 14 V 5.378 H 14.439 C 13.760886,5.37571 13.110102,5.6451017 12.632,6.126 l -5.369,5.363 z" class="light-defaultgrey-10" style="display:inline;opacity:1;fill:#fff;fill-opacity:1"/><g id="g7126"><rect style="display:inline;opacity:1;fill:#fff;fill-opacity:1;stroke:#595959;stroke-width:1;stroke-dasharray:none;stroke-opacity:1" id="rect1087" width="14.999" height="9.999" x=".5" y="4.5"/><path id="path17" d="m 15,1.5 v 3 H 1 v -3 z" class="light-defaultgrey-10" style="display:inline;opacity:1;fill:#e9e9e9;fill-opacity:1"/><path id="path19" d="M 0,1 V 5 H 16 V 1 Z M 15,4 H 1 V 2 h 14 z" class="light-defaultgrey" style="display:inline"/></g><path style="display:inline;fill:#a6c3dc;fill-opacity:1" id="path2193" d="m 2,13 v -1 h 6 v 1 z"/><path style="display:inline;fill:#a00;fill-opacity:1" id="path2191" d="M 2,7 V 6 h 7 v 1 z"/><path style="display:inline;fill:#1f801f;fill-opacity:1" id="path963" d="M 9,10 H 2 V 9 h 7 z"/><style id="style12721">.st1{fill:#f6f6f6}.st3{fill:#00539c}</style><path id="path12725" d="m 2.5772633,-0.0502063 -3.01920504,2.9975097 8.00940884,8.0091996 3.0062169,-0.0034 v -3 z" class="st1" style="display:inline;fill:#fff;fill-opacity:1" transform="rotate(90,5.2726846,10.682428)"/><path id="path12733" d="M 11.002492,8.0032215 13.002225,10.002885 9.0028985,14.002351 7.0031656,12.002688 Z" class="st3"/><path id="path12735" d="m 13.002037,6.0037285 1.999733,1.999663 -0.999831,0.999866 -1.999733,-1.999663 z" class="st3"/><path id="path12737" d="M 8.0019878,15.003494 H 6.0029877 l -0.001,-2" class="st3"/></svg>